<svg id="Ebene_1" data-name="Ebene 1" xmlns="http://www.w3.org/2000/svg" viewBox="0 0 95 16"><defs><style>.cls-1{fill:#f99d1c;}</style></defs><title>portfolio</title><path class="cls-1" d="M2.14.31H5C7.9.31,9.7,1.54,9.7,4.64A4,4,0,0,1,5.41,9H3.5v6.69H2.14ZM3.5,7.7H4.89c2,0,3.37-.68,3.37-3.06C8.25,1.58,6,1.58,4.69,1.58H3.5Z"/><path class="cls-1" d="M17.65.15c5.41,0,5.41,6.49,5.41,7.83s0,7.83-5.41,7.83S12.23,9.33,12.23,8,12.23.15,17.65.15Zm0,14.39c4,0,4-5.35,4-6.56s0-6.56-4-6.56-4,5.35-4,6.56S13.69,14.54,17.65,14.54Z"/><path class="cls-1" d="M26.49.31H30a3.7,3.7,0,0,1,4,3.92,3.46,3.46,0,0,1-3,3.72V8a2,2,0,0,1,1.56,1.32l2.31,6.36H33.49l-1.87-5.26c-.48-1.39-.92-1.89-2-1.89H27.85v7.15H26.49Zm1.36,6.93h1.87a2.79,2.79,0,0,0,2.9-2.95c0-2.53-2-2.71-3-2.71H27.85Z"/><path class="cls-1" d="M35.73.31h8.49V1.58H40.66V15.67H39.29V1.58H35.73Z"/><path class="cls-1" d="M47,.31h6.27V1.58H48.34V7H53V8.32H48.34v7.35H47Z"/><path class="cls-1" d="M61.25.15c5.41,0,5.41,6.49,5.41,7.83s0,7.83-5.41,7.83S55.84,9.33,55.84,8,55.84.15,61.25.15Zm0,14.39c4,0,4-5.35,4-6.56s0-6.56-4-6.56-4,5.35-4,6.56S57.29,14.54,61.25,14.54Z"/><path class="cls-1" d="M70.09.31h1.36V14.39h5v1.28H70.09Z"/><path class="cls-1" d="M79.2.31h1.36V15.67H79.2Z"/><path class="cls-1" d="M89.41.15c5.41,0,5.41,6.49,5.41,7.83s0,7.83-5.41,7.83S84,9.33,84,8,84,.15,89.41.15Zm0,14.39c4,0,4-5.35,4-6.56s0-6.56-4-6.56-4,5.35-4,6.56S85.45,14.54,89.41,14.54Z"/></svg>